<?xml version="1.0" encoding="UTF-8" standalone="no"?>
<!DOCTYPE svg PUBLIC "-//W3C//DTD SVG 1.1//EN"
 "http://www.w3.org/Graphics/SVG/1.1/DTD/svg11.dtd">
<!-- Generated by graphviz version 2.32.0 (20130829.2153)
 -->
<!-- Title: deps Pages: 1 -->
<svg width="9585pt" height="116pt"
 viewBox="0.00 0.00 9585.00 116.00" xmlns="http://www.w3.org/2000/svg" xmlns:xlink="http://www.w3.org/1999/xlink">
<g id="graph0" class="graph" transform="scale(1 1) rotate(0) translate(4 112)">
<title>deps</title>
<polygon fill="white" stroke="white" points="-4,5 -4,-112 9582,-112 9582,5 -4,5"/>
<!-- template&#45;server.service/style&#45;sheet -->
<g id="node1" class="node"><title>template&#45;server.service/style&#45;sheet</title>
<ellipse fill="none" stroke="black" cx="326" cy="-90" rx="133.333" ry="18"/>
<text text-anchor="middle" x="326" y="-86.3" font-family="Times,serif" font-size="14.00">template&#45;server.service/style&#45;sheet</text>
</g>
<!-- ring.util.response/content&#45;type -->
<g id="node2" class="node"><title>ring.util.response/content&#45;type</title>
<ellipse fill="none" stroke="black" cx="120" cy="-18" rx="120.359" ry="18"/>
<text text-anchor="middle" x="120" y="-14.3" font-family="Times,serif" font-size="14.00">ring.util.response/content&#45;type</text>
</g>
<!-- template&#45;server.service/style&#45;sheet&#45;&gt;ring.util.response/content&#45;type -->
<g id="edge1" class="edge"><title>template&#45;server.service/style&#45;sheet&#45;&gt;ring.util.response/content&#45;type</title>
<path fill="none" stroke="black" d="M279.255,-73.1159C248.595,-62.6974 208.342,-49.0191 175.976,-38.0211"/>
<polygon fill="black" stroke="black" points="176.799,-34.6041 166.204,-34.7005 174.547,-41.2319 176.799,-34.6041"/>
</g>
<!-- ring.util.response/response -->
<g id="node6" class="node"><title>ring.util.response/response</title>
<ellipse fill="none" stroke="black" cx="1863" cy="-18" rx="107.336" ry="18"/>
<text text-anchor="middle" x="1863" y="-14.3" font-family="Times,serif" font-size="14.00">ring.util.response/response</text>
</g>
<!-- template&#45;server.service/style&#45;sheet&#45;&gt;ring.util.response/response -->
<g id="edge24" class="edge"><title>template&#45;server.service/style&#45;sheet&#45;&gt;ring.util.response/response</title>
<path fill="none" stroke="black" d="M452.827,-84.3565C781.982,-72.2737 1642.31,-40.4792 1704,-36 1724.7,-34.497 1746.87,-32.4218 1767.89,-30.237"/>
<polygon fill="black" stroke="black" points="1768.53,-33.6893 1778.1,-29.1576 1767.79,-26.7281 1768.53,-33.6893"/>
</g>
<!-- garden.core/css -->
<g id="node25" class="node"><title>garden.core/css</title>
<ellipse fill="none" stroke="black" cx="326" cy="-18" rx="68.3664" ry="18"/>
<text text-anchor="middle" x="326" y="-14.3" font-family="Times,serif" font-size="14.00">garden.core/css</text>
</g>
<!-- template&#45;server.service/style&#45;sheet&#45;&gt;garden.core/css -->
<g id="edge17" class="edge"><title>template&#45;server.service/style&#45;sheet&#45;&gt;garden.core/css</title>
<path fill="none" stroke="black" d="M326,-71.6966C326,-63.9827 326,-54.7125 326,-46.1124"/>
<polygon fill="black" stroke="black" points="329.5,-46.1043 326,-36.1043 322.5,-46.1044 329.5,-46.1043"/>
</g>
<!-- template&#45;server.service/semantic&#45;grid -->
<g id="node3" class="node"><title>template&#45;server.service/semantic&#45;grid</title>
<ellipse fill="none" stroke="black" cx="957" cy="-90" rx="144.406" ry="18"/>
<text text-anchor="middle" x="957" y="-86.3" font-family="Times,serif" font-size="14.00">template&#45;server.service/semantic&#45;grid</text>
</g>
<!-- template&#45;server.grid/main -->
<g id="node4" class="node"><title>template&#45;server.grid/main</title>
<ellipse fill="none" stroke="black" cx="957" cy="-18" rx="102.061" ry="18"/>
<text text-anchor="middle" x="957" y="-14.3" font-family="Times,serif" font-size="14.00">template&#45;server.grid/main</text>
</g>
<!-- template&#45;server.service/semantic&#45;grid&#45;&gt;template&#45;server.grid/main -->
<g id="edge2" class="edge"><title>template&#45;server.service/semantic&#45;grid&#45;&gt;template&#45;server.grid/main</title>
<path fill="none" stroke="black" d="M957,-71.6966C957,-63.9827 957,-54.7125 957,-46.1124"/>
<polygon fill="black" stroke="black" points="960.5,-46.1043 957,-36.1043 953.5,-46.1044 960.5,-46.1043"/>
</g>
<!-- template&#45;server.service/semantic&#45;grid&#45;&gt;ring.util.response/response -->
<g id="edge34" class="edge"><title>template&#45;server.service/semantic&#45;grid&#45;&gt;ring.util.response/response</title>
<path fill="none" stroke="black" d="M1058.41,-77.0871C1075.93,-75.2342 1093.98,-73.455 1111,-72 1374.08,-49.5075 1440.88,-58.0412 1704,-36 1724.45,-34.2873 1746.34,-32.1466 1767.14,-29.9678"/>
<polygon fill="black" stroke="black" points="1767.67,-33.4307 1777.25,-28.8968 1766.94,-26.4696 1767.67,-33.4307"/>
</g>
<!-- hiccup.page/html5 -->
<g id="node7" class="node"><title>hiccup.page/html5</title>
<ellipse fill="none" stroke="black" cx="1618" cy="-18" rx="77.0154" ry="18"/>
<text text-anchor="middle" x="1618" y="-14.3" font-family="Times,serif" font-size="14.00">hiccup.page/html5</text>
</g>
<!-- template&#45;server.service/semantic&#45;grid&#45;&gt;hiccup.page/html5 -->
<g id="edge4" class="edge"><title>template&#45;server.service/semantic&#45;grid&#45;&gt;hiccup.page/html5</title>
<path fill="none" stroke="black" d="M1059.68,-77.3089C1076.81,-75.4608 1094.4,-73.6255 1111,-72 1297.9,-53.6959 1346.05,-62.2483 1532,-36 1538.78,-35.0424 1545.84,-33.8959 1552.87,-32.6566"/>
<polygon fill="black" stroke="black" points="1553.89,-36.0272 1563.1,-30.7856 1552.63,-29.1413 1553.89,-36.0272"/>
</g>
<!-- template&#45;server.grid/fixed -->
<g id="node13" class="node"><title>template&#45;server.grid/fixed</title>
<ellipse fill="none" stroke="black" cx="1180" cy="-18" rx="102.536" ry="18"/>
<text text-anchor="middle" x="1180" y="-14.3" font-family="Times,serif" font-size="14.00">template&#45;server.grid/fixed</text>
</g>
<!-- template&#45;server.service/semantic&#45;grid&#45;&gt;template&#45;server.grid/fixed -->
<g id="edge8" class="edge"><title>template&#45;server.service/semantic&#45;grid&#45;&gt;template&#45;server.grid/fixed</title>
<path fill="none" stroke="black" d="M1007.6,-73.1159C1041.78,-62.3864 1086.98,-48.1995 1122.52,-37.0434"/>
<polygon fill="black" stroke="black" points="1123.78,-40.3169 1132.27,-33.9825 1121.68,-33.6382 1123.78,-40.3169"/>
</g>
<!-- template&#45;server.service/semantic&#45;grid&#45;&gt;garden.core/css -->
<g id="edge26" class="edge"><title>template&#45;server.service/semantic&#45;grid&#45;&gt;garden.core/css</title>
<path fill="none" stroke="black" d="M830.484,-81.3041C717.836,-73.4053 548.787,-58.9792 403,-36 397.109,-35.0715 390.993,-33.9667 384.9,-32.7725"/>
<polygon fill="black" stroke="black" points="385.208,-29.2633 374.71,-30.6938 383.808,-36.122 385.208,-29.2633"/>
</g>
<!-- template&#45;server.grid/sidebar -->
<g id="node32" class="node"><title>template&#45;server.grid/sidebar</title>
<ellipse fill="none" stroke="black" cx="1412" cy="-18" rx="111.21" ry="18"/>
<text text-anchor="middle" x="1412" y="-14.3" font-family="Times,serif" font-size="14.00">template&#45;server.grid/sidebar</text>
</g>
<!-- template&#45;server.service/semantic&#45;grid&#45;&gt;template&#45;server.grid/sidebar -->
<g id="edge27" class="edge"><title>template&#45;server.service/semantic&#45;grid&#45;&gt;template&#45;server.grid/sidebar</title>
<path fill="none" stroke="black" d="M1044.19,-75.5861C1124.74,-63.1942 1243.78,-44.8795 1324.45,-32.4698"/>
<polygon fill="black" stroke="black" points="1325.23,-35.8908 1334.58,-30.9109 1324.16,-28.9722 1325.23,-35.8908"/>
</g>
<!-- template&#45;server.grid/center -->
<g id="node37" class="node"><title>template&#45;server.grid/center</title>
<ellipse fill="none" stroke="black" cx="519" cy="-18" rx="106.386" ry="18"/>
<text text-anchor="middle" x="519" y="-14.3" font-family="Times,serif" font-size="14.00">template&#45;server.grid/center</text>
</g>
<!-- template&#45;server.service/semantic&#45;grid&#45;&gt;template&#45;server.grid/center -->
<g id="edge33" class="edge"><title>template&#45;server.service/semantic&#45;grid&#45;&gt;template&#45;server.grid/center</title>
<path fill="none" stroke="black" d="M872.03,-75.4203C794.652,-63.054 681.003,-44.8909 603.707,-32.5377"/>
<polygon fill="black" stroke="black" points="603.95,-29.0321 593.523,-30.91 602.845,-35.9444 603.95,-29.0321"/>
</g>
<!-- template&#45;server.grid/top -->
<g id="node38" class="node"><title>template&#45;server.grid/top</title>
<ellipse fill="none" stroke="black" cx="740" cy="-18" rx="96.2631" ry="18"/>
<text text-anchor="middle" x="740" y="-14.3" font-family="Times,serif" font-size="14.00">template&#45;server.grid/top</text>
</g>
<!-- template&#45;server.service/semantic&#45;grid&#45;&gt;template&#45;server.grid/top -->
<g id="edge35" class="edge"><title>template&#45;server.service/semantic&#45;grid&#45;&gt;template&#45;server.grid/top</title>
<path fill="none" stroke="black" d="M907.488,-73.0283C874.244,-62.3044 830.384,-48.1562 795.887,-37.0281"/>
<polygon fill="black" stroke="black" points="796.556,-33.5663 785.964,-33.8271 794.407,-40.2282 796.556,-33.5663"/>
</g>
<!-- template&#45;server.service/home&#45;page -->
<g id="node5" class="node"><title>template&#45;server.service/home&#45;page</title>
<ellipse fill="none" stroke="black" cx="1584" cy="-90" rx="135.258" ry="18"/>
<text text-anchor="middle" x="1584" y="-86.3" font-family="Times,serif" font-size="14.00">template&#45;server.service/home&#45;page</text>
</g>
<!-- template&#45;server.service/home&#45;page&#45;&gt;ring.util.response/response -->
<g id="edge3" class="edge"><title>template&#45;server.service/home&#45;page&#45;&gt;ring.util.response/response</title>
<path fill="none" stroke="black" d="M1644.54,-73.811C1689.18,-62.6101 1749.91,-47.3729 1796.01,-35.8069"/>
<polygon fill="black" stroke="black" points="1797.06,-39.1516 1805.91,-33.3232 1795.36,-32.362 1797.06,-39.1516"/>
</g>
<!-- template&#45;server.service/comb&#45;page -->
<g id="node8" class="node"><title>template&#45;server.service/comb&#45;page</title>
<ellipse fill="none" stroke="black" cx="2517" cy="-90" rx="137.207" ry="18"/>
<text text-anchor="middle" x="2517" y="-86.3" font-family="Times,serif" font-size="14.00">template&#45;server.service/comb&#45;page</text>
</g>
<!-- template&#45;server.service/comb&#45;page&#45;&gt;ring.util.response/response -->
<g id="edge5" class="edge"><title>template&#45;server.service/comb&#45;page&#45;&gt;ring.util.response/response</title>
<path fill="none" stroke="black" d="M2418.57,-77.466C2402.35,-75.6083 2385.71,-73.7289 2370,-72 2228.46,-56.4186 2064.57,-39.4879 1962.33,-29.0585"/>
<polygon fill="black" stroke="black" points="1962.63,-25.5708 1952.33,-28.0385 1961.92,-32.5347 1962.63,-25.5708"/>
</g>
<!-- comb.template/eval -->
<g id="node14" class="node"><title>comb.template/eval</title>
<ellipse fill="none" stroke="black" cx="2517" cy="-18" rx="81.3646" ry="18"/>
<text text-anchor="middle" x="2517" y="-14.3" font-family="Times,serif" font-size="14.00">comb.template/eval</text>
</g>
<!-- template&#45;server.service/comb&#45;page&#45;&gt;comb.template/eval -->
<g id="edge9" class="edge"><title>template&#45;server.service/comb&#45;page&#45;&gt;comb.template/eval</title>
<path fill="none" stroke="black" d="M2517,-71.6966C2517,-63.9827 2517,-54.7125 2517,-46.1124"/>
<polygon fill="black" stroke="black" points="2520.5,-46.1043 2517,-36.1043 2513.5,-46.1044 2520.5,-46.1043"/>
</g>
<!-- template&#45;server.server/run&#45;dev -->
<g id="node9" class="node"><title>template&#45;server.server/run&#45;dev</title>
<ellipse fill="none" stroke="black" cx="3511" cy="-90" rx="120.359" ry="18"/>
<text text-anchor="middle" x="3511" y="-86.3" font-family="Times,serif" font-size="14.00">template&#45;server.server/run&#45;dev</text>
</g>
<!-- io.pedestal.service&#45;tools.dev/&#45;main -->
<g id="node10" class="node"><title>io.pedestal.service&#45;tools.dev/&#45;main</title>
<ellipse fill="none" stroke="black" cx="3106" cy="-18" rx="136.232" ry="18"/>
<text text-anchor="middle" x="3106" y="-14.3" font-family="Times,serif" font-size="14.00">io.pedestal.service&#45;tools.dev/&#45;main</text>
</g>
<!-- template&#45;server.server/run&#45;dev&#45;&gt;io.pedestal.service&#45;tools.dev/&#45;main -->
<g id="edge6" class="edge"><title>template&#45;server.server/run&#45;dev&#45;&gt;io.pedestal.service&#45;tools.dev/&#45;main</title>
<path fill="none" stroke="black" d="M3435.3,-75.9157C3367.18,-64.1429 3267.04,-46.8347 3195.09,-34.3989"/>
<polygon fill="black" stroke="black" points="3195.58,-30.932 3185.13,-32.6776 3194.39,-37.8297 3195.58,-30.932"/>
</g>
<!-- template&#45;server.service/routes -->
<g id="node18" class="node"><title>template&#45;server.service/routes</title>
<ellipse fill="none" stroke="black" cx="3379" cy="-18" rx="117.935" ry="18"/>
<text text-anchor="middle" x="3379" y="-14.3" font-family="Times,serif" font-size="14.00">template&#45;server.service/routes</text>
</g>
<!-- template&#45;server.server/run&#45;dev&#45;&gt;template&#45;server.service/routes -->
<g id="edge12" class="edge"><title>template&#45;server.server/run&#45;dev&#45;&gt;template&#45;server.service/routes</title>
<path fill="none" stroke="black" d="M3480.05,-72.5881C3461.9,-62.9598 3438.75,-50.6876 3419.2,-40.3175"/>
<polygon fill="black" stroke="black" points="3420.69,-37.1446 3410.21,-35.5516 3417.41,-43.3288 3420.69,-37.1446"/>
</g>
<!-- template&#45;server.service/service -->
<g id="node23" class="node"><title>template&#45;server.service/service</title>
<ellipse fill="none" stroke="black" cx="4253" cy="-18" rx="121.309" ry="18"/>
<text text-anchor="middle" x="4253" y="-14.3" font-family="Times,serif" font-size="14.00">template&#45;server.service/service</text>
</g>
<!-- template&#45;server.server/run&#45;dev&#45;&gt;template&#45;server.service/service -->
<g id="edge32" class="edge"><title>template&#45;server.server/run&#45;dev&#45;&gt;template&#45;server.service/service</title>
<path fill="none" stroke="black" d="M3616,-81.2561C3737.83,-71.9551 3944.69,-55.1863 4122,-36 4133.2,-34.7883 4144.92,-33.4158 4156.56,-31.9888"/>
<polygon fill="black" stroke="black" points="4157.25,-35.4296 4166.74,-30.7235 4156.39,-28.483 4157.25,-35.4296"/>
</g>
<!-- io.pedestal.service&#45;tools.dev/init -->
<g id="node34" class="node"><title>io.pedestal.service&#45;tools.dev/init</title>
<ellipse fill="none" stroke="black" cx="3643" cy="-18" rx="127.083" ry="18"/>
<text text-anchor="middle" x="3643" y="-14.3" font-family="Times,serif" font-size="14.00">io.pedestal.service&#45;tools.dev/init</text>
</g>
<!-- template&#45;server.server/run&#45;dev&#45;&gt;io.pedestal.service&#45;tools.dev/init -->
<g id="edge29" class="edge"><title>template&#45;server.server/run&#45;dev&#45;&gt;io.pedestal.service&#45;tools.dev/init</title>
<path fill="none" stroke="black" d="M3541.95,-72.5881C3560.1,-62.9598 3583.25,-50.6876 3602.8,-40.3175"/>
<polygon fill="black" stroke="black" points="3604.59,-43.3288 3611.79,-35.5516 3601.31,-37.1446 3604.59,-43.3288"/>
</g>
<!-- template&#45;server.service/&#45;&gt;graph&#45;record9431 -->
<g id="node11" class="node"><title>template&#45;server.service/&#45;&gt;graph&#45;record9431</title>
<ellipse fill="none" stroke="black" cx="4827" cy="-90" rx="168.478" ry="18"/>
<text text-anchor="middle" x="4827" y="-86.3" font-family="Times,serif" font-size="14.00">template&#45;server.service/&#45;&gt;graph&#45;record9431</text>
</g>
<!-- plumbing.graph/eager&#45;compile -->
<g id="node12" class="node"><title>plumbing.graph/eager&#45;compile</title>
<ellipse fill="none" stroke="black" cx="5380" cy="-18" rx="120.359" ry="18"/>
<text text-anchor="middle" x="5380" y="-14.3" font-family="Times,serif" font-size="14.00">plumbing.graph/eager&#45;compile</text>
</g>
<!-- template&#45;server.service/&#45;&gt;graph&#45;record9431&#45;&gt;plumbing.graph/eager&#45;compile -->
<g id="edge7" class="edge"><title>template&#45;server.service/&#45;&gt;graph&#45;record9431&#45;&gt;plumbing.graph/eager&#45;compile</title>
<path fill="none" stroke="black" d="M4931.02,-75.8335C5031.59,-63.1024 5182.86,-43.9542 5281.52,-31.4654"/>
<polygon fill="black" stroke="black" points="5282.02,-34.9309 5291.5,-30.2027 5281.14,-27.9863 5282.02,-34.9309"/>
</g>
<!-- template&#45;server.service/map&#45;&gt;graph&#45;record9431 -->
<g id="node15" class="node"><title>template&#45;server.service/map&#45;&gt;graph&#45;record9431</title>
<ellipse fill="none" stroke="black" cx="5199" cy="-90" rx="184.375" ry="18"/>
<text text-anchor="middle" x="5199" y="-86.3" font-family="Times,serif" font-size="14.00">template&#45;server.service/map&#45;&gt;graph&#45;record9431</text>
</g>
<!-- template&#45;server.service/map&#45;&gt;graph&#45;record9431&#45;&gt;plumbing.graph/eager&#45;compile -->
<g id="edge10" class="edge"><title>template&#45;server.service/map&#45;&gt;graph&#45;record9431&#45;&gt;plumbing.graph/eager&#45;compile</title>
<path fill="none" stroke="black" d="M5241.89,-72.411C5268.08,-62.2846 5301.69,-49.2839 5329.21,-38.6444"/>
<polygon fill="black" stroke="black" points="5330.59,-41.8596 5338.66,-34.9881 5328.07,-35.3308 5330.59,-41.8596"/>
</g>
<!-- template&#45;server.server/servlet&#45;init -->
<g id="node16" class="node"><title>template&#45;server.server/servlet&#45;init</title>
<ellipse fill="none" stroke="black" cx="4253" cy="-90" rx="129.483" ry="18"/>
<text text-anchor="middle" x="4253" y="-86.3" font-family="Times,serif" font-size="14.00">template&#45;server.server/servlet&#45;init</text>
</g>
<!-- io.pedestal.service&#45;tools.server/servlet&#45;init -->
<g id="node17" class="node"><title>io.pedestal.service&#45;tools.server/servlet&#45;init</title>
<ellipse fill="none" stroke="black" cx="3951" cy="-18" rx="162.228" ry="18"/>
<text text-anchor="middle" x="3951" y="-14.3" font-family="Times,serif" font-size="14.00">io.pedestal.service&#45;tools.server/servlet&#45;init</text>
</g>
<!-- template&#45;server.server/servlet&#45;init&#45;&gt;io.pedestal.service&#45;tools.server/servlet&#45;init -->
<g id="edge11" class="edge"><title>template&#45;server.server/servlet&#45;init&#45;&gt;io.pedestal.service&#45;tools.server/servlet&#45;init</title>
<path fill="none" stroke="black" d="M4189.32,-74.2403C4142.11,-63.2974 4077.55,-48.3325 4027.53,-36.7386"/>
<polygon fill="black" stroke="black" points="4028.26,-33.3154 4017.73,-34.4669 4026.68,-40.1346 4028.26,-33.3154"/>
</g>
<!-- template&#45;server.server/servlet&#45;init&#45;&gt;template&#45;server.service/service -->
<g id="edge23" class="edge"><title>template&#45;server.server/servlet&#45;init&#45;&gt;template&#45;server.service/service</title>
<path fill="none" stroke="black" d="M4253,-71.6966C4253,-63.9827 4253,-54.7125 4253,-46.1124"/>
<polygon fill="black" stroke="black" points="4256.5,-46.1043 4253,-36.1043 4249.5,-46.1044 4256.5,-46.1043"/>
</g>
<!-- io.pedestal.service&#45;tools.server/init -->
<g id="node30" class="node"><title>io.pedestal.service&#45;tools.server/init</title>
<ellipse fill="none" stroke="black" cx="4528" cy="-18" rx="135.258" ry="18"/>
<text text-anchor="middle" x="4528" y="-14.3" font-family="Times,serif" font-size="14.00">io.pedestal.service&#45;tools.server/init</text>
</g>
<!-- template&#45;server.server/servlet&#45;init&#45;&gt;io.pedestal.service&#45;tools.server/init -->
<g id="edge36" class="edge"><title>template&#45;server.server/servlet&#45;init&#45;&gt;io.pedestal.service&#45;tools.server/init</title>
<path fill="none" stroke="black" d="M4312.33,-73.8972C4355.29,-62.9635 4413.48,-48.1507 4458.59,-36.6675"/>
<polygon fill="black" stroke="black" points="4459.47,-40.0551 4468.3,-34.1964 4457.75,-33.2714 4459.47,-40.0551"/>
</g>
<!-- template&#45;server.server/servlet&#45;service -->
<g id="node19" class="node"><title>template&#45;server.server/servlet&#45;service</title>
<ellipse fill="none" stroke="black" cx="6245" cy="-90" rx="143.931" ry="18"/>
<text text-anchor="middle" x="6245" y="-86.3" font-family="Times,serif" font-size="14.00">template&#45;server.server/servlet&#45;service</text>
</g>
<!-- io.pedestal.service&#45;tools.server/servlet&#45;service -->
<g id="node20" class="node"><title>io.pedestal.service&#45;tools.server/servlet&#45;service</title>
<ellipse fill="none" stroke="black" cx="6245" cy="-18" rx="176.177" ry="18"/>
<text text-anchor="middle" x="6245" y="-14.3" font-family="Times,serif" font-size="14.00">io.pedestal.service&#45;tools.server/servlet&#45;service</text>
</g>
<!-- template&#45;server.server/servlet&#45;service&#45;&gt;io.pedestal.service&#45;tools.server/servlet&#45;service -->
<g id="edge13" class="edge"><title>template&#45;server.server/servlet&#45;service&#45;&gt;io.pedestal.service&#45;tools.server/servlet&#45;service</title>
<path fill="none" stroke="black" d="M6245,-71.6966C6245,-63.9827 6245,-54.7125 6245,-46.1124"/>
<polygon fill="black" stroke="black" points="6248.5,-46.1043 6245,-36.1043 6241.5,-46.1044 6248.5,-46.1043"/>
</g>
<!-- template&#45;server.service/mustache&#45;page -->
<g id="node21" class="node"><title>template&#45;server.service/mustache&#45;page</title>
<ellipse fill="none" stroke="black" cx="2822" cy="-90" rx="150.205" ry="18"/>
<text text-anchor="middle" x="2822" y="-86.3" font-family="Times,serif" font-size="14.00">template&#45;server.service/mustache&#45;page</text>
</g>
<!-- template&#45;server.service/mustache&#45;page&#45;&gt;ring.util.response/response -->
<g id="edge14" class="edge"><title>template&#45;server.service/mustache&#45;page&#45;&gt;ring.util.response/response</title>
<path fill="none" stroke="black" d="M2716.86,-77.1534C2698.9,-75.3035 2680.42,-73.5081 2663,-72 2417.47,-50.7494 2128.89,-33.5413 1974.26,-24.9491"/>
<polygon fill="black" stroke="black" points="1973.99,-21.4291 1963.82,-24.3706 1973.61,-28.4184 1973.99,-21.4291"/>
</g>
<!-- clostache.parser/render&#45;resource -->
<g id="node24" class="node"><title>clostache.parser/render&#45;resource</title>
<ellipse fill="none" stroke="black" cx="2822" cy="-18" rx="129.008" ry="18"/>
<text text-anchor="middle" x="2822" y="-14.3" font-family="Times,serif" font-size="14.00">clostache.parser/render&#45;resource</text>
</g>
<!-- template&#45;server.service/mustache&#45;page&#45;&gt;clostache.parser/render&#45;resource -->
<g id="edge16" class="edge"><title>template&#45;server.service/mustache&#45;page&#45;&gt;clostache.parser/render&#45;resource</title>
<path fill="none" stroke="black" d="M2822,-71.6966C2822,-63.9827 2822,-54.7125 2822,-46.1124"/>
<polygon fill="black" stroke="black" points="2825.5,-46.1043 2822,-36.1043 2818.5,-46.1044 2825.5,-46.1043"/>
</g>
<!-- template&#45;server.server/&#45;main -->
<g id="node22" class="node"><title>template&#45;server.server/&#45;main</title>
<ellipse fill="none" stroke="black" cx="4528" cy="-90" rx="112.16" ry="18"/>
<text text-anchor="middle" x="4528" y="-86.3" font-family="Times,serif" font-size="14.00">template&#45;server.server/&#45;main</text>
</g>
<!-- template&#45;server.server/&#45;main&#45;&gt;template&#45;server.service/service -->
<g id="edge15" class="edge"><title>template&#45;server.server/&#45;main&#45;&gt;template&#45;server.service/service</title>
<path fill="none" stroke="black" d="M4470.69,-74.4109C4427.13,-63.3241 4367.07,-48.0372 4321.07,-36.3279"/>
<polygon fill="black" stroke="black" points="4321.74,-32.8863 4311.19,-33.8113 4320.01,-39.67 4321.74,-32.8863"/>
</g>
<!-- template&#45;server.server/&#45;main&#45;&gt;io.pedestal.service&#45;tools.server/init -->
<g id="edge22" class="edge"><title>template&#45;server.server/&#45;main&#45;&gt;io.pedestal.service&#45;tools.server/init</title>
<path fill="none" stroke="black" d="M4528,-71.6966C4528,-63.9827 4528,-54.7125 4528,-46.1124"/>
<polygon fill="black" stroke="black" points="4531.5,-46.1043 4528,-36.1043 4524.5,-46.1044 4531.5,-46.1043"/>
</g>
<!-- io.pedestal.service&#45;tools.server/&#45;main -->
<g id="node33" class="node"><title>io.pedestal.service&#45;tools.server/&#45;main</title>
<ellipse fill="none" stroke="black" cx="4827" cy="-18" rx="145.38" ry="18"/>
<text text-anchor="middle" x="4827" y="-14.3" font-family="Times,serif" font-size="14.00">io.pedestal.service&#45;tools.server/&#45;main</text>
</g>
<!-- template&#45;server.server/&#45;main&#45;&gt;io.pedestal.service&#45;tools.server/&#45;main -->
<g id="edge28" class="edge"><title>template&#45;server.server/&#45;main&#45;&gt;io.pedestal.service&#45;tools.server/&#45;main</title>
<path fill="none" stroke="black" d="M4588.51,-74.8345C4635.78,-63.7672 4701.72,-48.3301 4752.28,-36.4921"/>
<polygon fill="black" stroke="black" points="4753.24,-39.8622 4762.18,-34.1748 4751.65,-33.0465 4753.24,-39.8622"/>
</g>
<!-- template&#45;server.service/markdown&#45;page -->
<g id="node26" class="node"><title>template&#45;server.service/markdown&#45;page</title>
<ellipse fill="none" stroke="black" cx="1275" cy="-90" rx="154.529" ry="18"/>
<text text-anchor="middle" x="1275" y="-86.3" font-family="Times,serif" font-size="14.00">template&#45;server.service/markdown&#45;page</text>
</g>
<!-- template&#45;server.service/markdown&#45;page&#45;&gt;ring.util.response/response -->
<g id="edge18" class="edge"><title>template&#45;server.service/markdown&#45;page&#45;&gt;ring.util.response/response</title>
<path fill="none" stroke="black" d="M1378.77,-76.6465C1488.8,-63.5477 1661.13,-43.0326 1767.79,-30.3347"/>
<polygon fill="black" stroke="black" points="1768.38,-33.7885 1777.9,-29.1308 1767.56,-26.8376 1768.38,-33.7885"/>
</g>
<!-- template&#45;server.service/markdown&#45;page&#45;&gt;hiccup.page/html5 -->
<g id="edge20" class="edge"><title>template&#45;server.service/markdown&#45;page&#45;&gt;hiccup.page/html5</title>
<path fill="none" stroke="black" d="M1348.16,-74.0691C1408.61,-61.7331 1493.67,-44.3733 1552.04,-32.4605"/>
<polygon fill="black" stroke="black" points="1552.8,-35.8787 1561.9,-30.4497 1551.4,-29.02 1552.8,-35.8787"/>
</g>
<!-- template&#45;server.service/stringtemplate&#45;page -->
<g id="node27" class="node"><title>template&#45;server.service/stringtemplate&#45;page</title>
<ellipse fill="none" stroke="black" cx="1904" cy="-90" rx="166.078" ry="18"/>
<text text-anchor="middle" x="1904" y="-86.3" font-family="Times,serif" font-size="14.00">template&#45;server.service/stringtemplate&#45;page</text>
</g>
<!-- template&#45;server.service/stringtemplate&#45;page&#45;&gt;ring.util.response/response -->
<g id="edge19" class="edge"><title>template&#45;server.service/stringtemplate&#45;page&#45;&gt;ring.util.response/response</title>
<path fill="none" stroke="black" d="M1893.87,-71.6966C1889.15,-63.6436 1883.44,-53.8945 1878.22,-44.9824"/>
<polygon fill="black" stroke="black" points="1881.09,-42.9643 1873.02,-36.1043 1875.05,-46.5021 1881.09,-42.9643"/>
</g>
<!-- template&#45;server.server/servlet&#45;destroy -->
<g id="node28" class="node"><title>template&#45;server.server/servlet&#45;destroy</title>
<ellipse fill="none" stroke="black" cx="6619" cy="-90" rx="146.356" ry="18"/>
<text text-anchor="middle" x="6619" y="-86.3" font-family="Times,serif" font-size="14.00">template&#45;server.server/servlet&#45;destroy</text>
</g>
<!-- io.pedestal.service&#45;tools.server/servlet&#45;destroy -->
<g id="node29" class="node"><title>io.pedestal.service&#45;tools.server/servlet&#45;destroy</title>
<ellipse fill="none" stroke="black" cx="6619" cy="-18" rx="178.601" ry="18"/>
<text text-anchor="middle" x="6619" y="-14.3" font-family="Times,serif" font-size="14.00">io.pedestal.service&#45;tools.server/servlet&#45;destroy</text>
</g>
<!-- template&#45;server.server/servlet&#45;destroy&#45;&gt;io.pedestal.service&#45;tools.server/servlet&#45;destroy -->
<g id="edge21" class="edge"><title>template&#45;server.server/servlet&#45;destroy&#45;&gt;io.pedestal.service&#45;tools.server/servlet&#45;destroy</title>
<path fill="none" stroke="black" d="M6619,-71.6966C6619,-63.9827 6619,-54.7125 6619,-46.1124"/>
<polygon fill="black" stroke="black" points="6622.5,-46.1043 6619,-36.1043 6615.5,-46.1044 6622.5,-46.1043"/>
</g>
<!-- template&#45;server.grid/&#45;&gt;graph&#45;record4698 -->
<g id="node31" class="node"><title>template&#45;server.grid/&#45;&gt;graph&#45;record4698</title>
<ellipse fill="none" stroke="black" cx="5560" cy="-90" rx="157.404" ry="18"/>
<text text-anchor="middle" x="5560" y="-86.3" font-family="Times,serif" font-size="14.00">template&#45;server.grid/&#45;&gt;graph&#45;record4698</text>
</g>
<!-- template&#45;server.grid/&#45;&gt;graph&#45;record4698&#45;&gt;plumbing.graph/eager&#45;compile -->
<g id="edge25" class="edge"><title>template&#45;server.grid/&#45;&gt;graph&#45;record4698&#45;&gt;plumbing.graph/eager&#45;compile</title>
<path fill="none" stroke="black" d="M5517.8,-72.5881C5491.68,-62.4305 5457.99,-49.3304 5430.46,-38.6253"/>
<polygon fill="black" stroke="black" points="5431.6,-35.3099 5421.01,-34.9474 5429.06,-41.8339 5431.6,-35.3099"/>
</g>
<!-- template&#45;server.service/enlive&#45;page -->
<g id="node35" class="node"><title>template&#45;server.service/enlive&#45;page</title>
<ellipse fill="none" stroke="black" cx="2225" cy="-90" rx="136.232" ry="18"/>
<text text-anchor="middle" x="2225" y="-86.3" font-family="Times,serif" font-size="14.00">template&#45;server.service/enlive&#45;page</text>
</g>
<!-- template&#45;server.service/enlive&#45;page&#45;&gt;ring.util.response/response -->
<g id="edge30" class="edge"><title>template&#45;server.service/enlive&#45;page&#45;&gt;ring.util.response/response</title>
<path fill="none" stroke="black" d="M2151.31,-74.7501C2090.01,-62.8979 2003.03,-46.0771 1940.66,-34.0169"/>
<polygon fill="black" stroke="black" points="1940.96,-30.5109 1930.48,-32.0486 1939.63,-37.3836 1940.96,-30.5109"/>
</g>
<!-- template&#45;server.grid/map&#45;&gt;graph&#45;record4698 -->
<g id="node36" class="node"><title>template&#45;server.grid/map&#45;&gt;graph&#45;record4698</title>
<ellipse fill="none" stroke="black" cx="5909" cy="-90" rx="173.302" ry="18"/>
<text text-anchor="middle" x="5909" y="-86.3" font-family="Times,serif" font-size="14.00">template&#45;server.grid/map&#45;&gt;graph&#45;record4698</text>
</g>
<!-- template&#45;server.grid/map&#45;&gt;graph&#45;record4698&#45;&gt;plumbing.graph/eager&#45;compile -->
<g id="edge31" class="edge"><title>template&#45;server.grid/map&#45;&gt;graph&#45;record4698&#45;&gt;plumbing.graph/eager&#45;compile</title>
<path fill="none" stroke="black" d="M5806.69,-75.4618C5711.35,-62.8458 5570.22,-44.1703 5476.72,-31.7983"/>
<polygon fill="black" stroke="black" points="5477.07,-28.3137 5466.69,-30.4716 5476.15,-35.2533 5477.07,-28.3137"/>
</g>
<!-- template&#45;server.service/demo&#45;style -->
<g id="node39" class="node"><title>template&#45;server.service/demo&#45;style</title>
<ellipse fill="none" stroke="black" cx="6919" cy="-90" rx="135.258" ry="18"/>
<text text-anchor="middle" x="6919" y="-86.3" font-family="Times,serif" font-size="14.00">template&#45;server.service/demo&#45;style</text>
</g>
<!-- template&#45;server.service/sub&#45;headings -->
<g id="node40" class="node"><title>template&#45;server.service/sub&#45;headings</title>
<ellipse fill="none" stroke="black" cx="7216" cy="-90" rx="143.456" ry="18"/>
<text text-anchor="middle" x="7216" y="-86.3" font-family="Times,serif" font-size="14.00">template&#45;server.service/sub&#45;headings</text>
</g>
<!-- template&#45;server.service/hiccup&#45;page -->
<g id="node41" class="node"><title>template&#45;server.service/hiccup&#45;page</title>
<ellipse fill="none" stroke="black" cx="7518" cy="-90" rx="140.082" ry="18"/>
<text text-anchor="middle" x="7518" y="-86.3" font-family="Times,serif" font-size="14.00">template&#45;server.service/hiccup&#45;page</text>
</g>
<!-- template&#45;server.service/on&#45;hover -->
<g id="node42" class="node"><title>template&#45;server.service/on&#45;hover</title>
<ellipse fill="none" stroke="black" cx="7805" cy="-90" rx="128.533" ry="18"/>
<text text-anchor="middle" x="7805" y="-86.3" font-family="Times,serif" font-size="14.00">template&#45;server.service/on&#45;hover</text>
</g>
<!-- template&#45;server.service/active&#45;links -->
<g id="node43" class="node"><title>template&#45;server.service/active&#45;links</title>
<ellipse fill="none" stroke="black" cx="8088" cy="-90" rx="136.232" ry="18"/>
<text text-anchor="middle" x="8088" y="-86.3" font-family="Times,serif" font-size="14.00">template&#45;server.service/active&#45;links</text>
</g>
<!-- template&#45;server.grid/headings -->
<g id="node44" class="node"><title>template&#45;server.grid/headings</title>
<ellipse fill="none" stroke="black" cx="8359" cy="-90" rx="116.01" ry="18"/>
<text text-anchor="middle" x="8359" y="-86.3" font-family="Times,serif" font-size="14.00">template&#45;server.grid/headings</text>
</g>
<!-- template&#45;server.service/headings -->
<g id="node45" class="node"><title>template&#45;server.service/headings</title>
<ellipse fill="none" stroke="black" cx="8621" cy="-90" rx="128.058" ry="18"/>
<text text-anchor="middle" x="8621" y="-86.3" font-family="Times,serif" font-size="14.00">template&#45;server.service/headings</text>
</g>
<!-- template&#45;server.service/visited&#45;links -->
<g id="node46" class="node"><title>template&#45;server.service/visited&#45;links</title>
<ellipse fill="none" stroke="black" cx="8906" cy="-90" rx="139.132" ry="18"/>
<text text-anchor="middle" x="8906" y="-86.3" font-family="Times,serif" font-size="14.00">template&#45;server.service/visited&#45;links</text>
</g>
<!-- template&#45;server.service/links -->
<g id="node47" class="node"><title>template&#45;server.service/links</title>
<ellipse fill="none" stroke="black" cx="9176" cy="-90" rx="112.16" ry="18"/>
<text text-anchor="middle" x="9176" y="-86.3" font-family="Times,serif" font-size="14.00">template&#45;server.service/links</text>
</g>
<!-- template&#45;server.service/page&#45;body -->
<g id="node48" class="node"><title>template&#45;server.service/page&#45;body</title>
<ellipse fill="none" stroke="black" cx="9442" cy="-90" rx="135.282" ry="18"/>
<text text-anchor="middle" x="9442" y="-86.3" font-family="Times,serif" font-size="14.00">template&#45;server.service/page&#45;body</text>
</g>
</g>
</svg>
